<svg width="187" height="187" viewBox="0 0 187 187" fill="none" xmlns="http://www.w3.org/2000/svg">
<path d="M140.881 143.048C152.952 143.048 164.529 147.615 173.064 155.744C181.138 163.433 185.865 173.713 186.354 184.531C186.4 185.56 185.561 186.396 184.531 186.396H97.2295C96.2001 186.395 95.3608 185.56 95.4072 184.531C95.8957 173.713 100.623 163.433 108.696 155.744C117.232 147.615 128.81 143.048 140.881 143.048ZM1.86426 95.4072C12.6828 95.8957 22.9626 100.623 30.6514 108.696C38.7805 117.232 43.3476 128.809 43.3477 140.88C43.3477 152.951 38.7806 164.529 30.6514 173.064C22.9626 181.138 12.6828 185.865 1.86426 186.354C0.835878 186.4 1.66031e-06 185.561 0 184.531V97.2295C-7.40187e-08 96.2001 0.835877 95.3608 1.86426 95.4072ZM89.166 95.4072C90.1944 95.3608 91.0303 96.2001 91.0303 97.2295V184.531C91.0303 185.561 90.1951 186.4 89.167 186.354C78.3483 185.865 68.0678 181.138 60.3789 173.064C52.2497 164.529 47.6826 152.951 47.6826 140.88C47.6827 128.809 52.2498 117.232 60.3789 108.696C68.0677 100.623 78.3474 95.8958 89.166 95.4072ZM184.531 95.3652C185.561 95.3652 186.4 96.2003 186.354 97.2285C185.865 108.047 181.138 118.328 173.064 126.017C164.529 134.146 152.952 138.713 140.881 138.713C128.81 138.713 117.232 134.146 108.696 126.017C100.623 118.328 95.8956 108.047 95.4072 97.2285C95.3611 96.2004 96.2003 95.3653 97.2295 95.3652H184.531ZM45.5156 47.6826C57.5868 47.6827 69.1636 52.2498 77.6992 60.3789C85.7724 68.0677 90.4998 78.3474 90.9883 89.166C91.0347 90.1944 90.1954 91.0303 89.166 91.0303H1.86426C0.83483 91.0303 -0.00443373 90.1944 0.0419922 89.166C0.530447 78.3474 5.25794 68.0677 13.3311 60.3789C21.8668 52.2497 33.4443 47.6826 45.5156 47.6826ZM97.2295 0.0419922C108.048 0.530466 118.328 5.25785 126.017 13.3311C134.146 21.8667 138.713 33.4434 138.713 45.5146C138.713 57.586 134.146 69.1635 126.017 77.6992C118.328 85.7723 108.048 90.4988 97.2295 90.9873C96.2012 91.0337 95.3653 90.1954 95.3652 89.166V1.86426C95.3652 0.83483 96.2011 -0.00443374 97.2295 0.0419922ZM184.532 0.0419922C185.56 -0.00422343 186.396 0.834949 186.396 1.86426V89.166C186.395 90.1953 185.56 91.0335 184.532 90.9873C173.714 90.4989 163.433 85.7725 155.744 77.6992C147.615 69.1635 143.048 57.586 143.048 45.5146C143.048 33.4434 147.615 21.8667 155.744 13.3311C163.433 5.25769 173.713 0.530406 184.532 0.0419922ZM89.166 0C90.1953 -7.40114e-08 91.0345 0.835039 90.9883 1.86328C90.4999 12.6821 85.7726 22.9625 77.6992 30.6514C69.1636 38.7805 57.5868 43.3475 45.5156 43.3477C33.4443 43.3477 21.8668 38.7806 13.3311 30.6514C5.25775 22.9625 0.530404 12.682 0.0419922 1.86328C-0.00424737 0.835046 0.834935 7.40111e-08 1.86426 0H89.166Z" fill="#101010"/>
</svg>
